# xmcd CD database file
#
# Track frame offsets:
#	150
#	16757
#	33952
#	52870
#	66120
#	85670
#	97980
#	118020
#	135002
#	153365
#	169972
#	183707
#	200155
#	213337
#	233095
#	267680
#
# Disc length: 4440 seconds
#
# Revision: 0
# Processed by: cddbd v1.4PL0 Copyright (c) Steve Scherf et al.
# Submitted via: CDex 1.51
#
DISCID=d2115610
DTITLE=Brooks and Dunn - Red Dirt Road
DYEAR=2003
DGENRE=Country
TTITLE0=You Can't Take The Honky Tonk Out Of The Girl
TTITLE1=Caroline
TTITLE2=When We Were Kings
TTITLE3=That's Just What She Gets For Loving Me
TTITLE4=Red Dirt Road
TTITLE5=Feels Good Don't It
TTITLE6=I Used To Know This Song By Heart
TTITLE7=Believer
TTITLE8=Memory Town
TTITLE9=She Was Born To Run
TTITLE10=Till My Dyin' Day
TTITLE11=Me Baby's Everything I Love
TTITLE12=Good Day To Be Me
TTITLE13=Good Cowboy
TTITLE14=Holy War
TTITLE15=Datatrack
EXTD=YEAR: 2003
EXTT0=
EXTT1=
EXTT2=
EXTT3=
EXTT4=
EXTT5=
EXTT6=
EXTT7=
EXTT8=
EXTT9=
EXTT10=
EXTT11=
EXTT12=
EXTT13=
EXTT14=
EXTT15=
PLAYORDER=
